<svg xmlns="http://www.w3.org/2000/svg" width="100" height="100" viewBox="0 0 100 100">
  <rect width="100" height="100" rx="22" fill="#0b0f0e" />
  <g transform="translate(18 18) scale(2.6667)" fill="#45a182">
    <path fill-rule="evenodd" clip-rule="evenodd" d="M12 0.9a3.1 3.1 0 100 6.2 3.1 3.1 0 000-6.2zm0 1.85a1.25 1.25 0 110 2.5 1.25 1.25 0 010-2.5z" />
    <rect x="10.85" y="5.0" width="2.3" height="16.2" rx="1.15" />
    <rect x="5.7" y="8.3" width="12.6" height="2.2" rx="1.1" />
    <path d="M3.84 16.1A8.8 8.8 0 0020.16 16.1L18.03 15.24A6.5 6.5 0 015.97 15.24Z" />
    <path d="M18.03 15.24L20.16 16.1L21.84 13.54Z" />
    <path d="M5.97 15.24L3.84 16.1L2.16 13.54Z" />
  </g>
</svg>
